<svg xmlns="http://www.w3.org/2000/svg" xmlns:xlink="http://www.w3.org/1999/xlink" xmlns:lucid="lucid" width="1675.74" height="692.12"><g transform="translate(9.369176697294847 266.503817422736)" lucid:page-tab-id="0_0"><path d="M-500-500h2500V500H-500z" fill="#f2f3f5"/><path d="M1294.62 57.04l5.8.12 7.3.46 6.52.68 5.93.87 5.5 1.05 5.15 1.2 4.95 1.4 4.86 1.57 4.9 1.8 5.18 2.2 5.93 2.78 8.64 4.54 22.33 12.2 5.92 2.8 5.18 2.18 4.9 1.82 4.86 1.58 4.95 1.38 5.17 1.2 5.5 1.06 5.92.87 6.5.7 7.3.45 5.82.12" stroke="#fc9432" stroke-width="5" stroke-linejoin="round" fill="none"/><path d="M1294.73 54.57l-.1 4.95-2.52-.06V54.5zM1452.1 99.65v4.95h-2.55v-4.95z" stroke="#fc9432" stroke-width=".05" fill="#fc9432"/><path d="M710.43 34.5l-1.8.1-2.07.22-2 .3-1.98.37-1.94.45-1.9.53-1.92.62-1.9.7-1.9.8-1.9.9-1.9 1-1.96 1.13-2 1.26-2.02 1.4-2.1 1.6-2.14 1.77-2.25 2.03-2.36 2.3-2.5 2.66-2.66 3.08-2.86 3.63-3.15 4.33-3.52 5.3-4.06 6.75-5 9.14-7.22 14.6-28.2 61-5 9.13-4.08 6.74-3.52 5.3-3.14 4.34-2.87 3.63-2.64 3.08-2.5 2.67-2.35 2.3-2.24 2.03-2.16 1.8-2.1 1.57-2.02 1.42-1.98 1.25-1.95 1.12-1.92 1-1.9.9-1.9.8-1.9.7-1.9.62-1.9.53-1.96.45-1.97.38-2 .3-2.06.2-1.8.13" stroke="#1071e5" stroke-width="5" stroke-linejoin="round" fill="none"/><path d="M712.93 34.42l.2 2.47-2.72.05-.1-4.95 2.82-.06zM555.5 217.43h-2.57v-4.95h2.56z" stroke="#1071e5" stroke-width=".05" fill="#1071e5"/><path d="M1112.93 26.86h179.18v60.26h-179.17z" fill="none"/><use xlink:href="#a" transform="matrix(1,0,0,1,1132.9285186152051,46.856607381951505) translate(0 16.589501953125)"/><path d="M78.55-85.97h184.53v60.26H78.55z" fill="none"/><use xlink:href="#b" transform="matrix(1,0,0,1,98.5485186152049,-65.97432523523602) translate(0.47854492187497044 16.589501953125)"/><path d="M712.93 34.42a40 40 0 0 1 40-40h160a40 40 0 0 1 40 40 40 40 0 0 1-40 40h-160a40 40 0 0 1-40-40z" fill="#fff"/><use xlink:href="#c" transform="matrix(1,0,0,1,712.9285186152051,-5.577206094610972) translate(24.541015625 47.275390625)"/><path d="M423.08-176.24h129.85v60.27H423.08z" fill="none"/><use xlink:href="#d" transform="matrix(1,0,0,1,443.07997369333,-156.23907132898603) translate(0.1614550781249875 16.589501953125)"/><path d="M458.5 184.82h94.43v60.27H458.5z" fill="none"/><use xlink:href="#e" transform="matrix(1,0,0,1,478.49717095895494,204.81991304601405) translate(0.5786523437499937 16.589501953125)"/><path d="M456 215.02l-1.8.1-2.07.23-2 .3-1.98.37-1.94.45-1.9.54-1.9.63-1.9.7-1.9.8-1.9.9-1.93 1-1.94 1.13-2 1.26-2.02 1.4-2.08 1.6-2.16 1.78-2.25 2.03-2.34 2.3-2.5 2.66-2.65 3.07-2.86 3.62-3.14 4.33-3.52 5.3-4.07 6.75-5 9.14-7.2 14.6-28.2 61-5 9.14-4.1 6.74-3.5 5.3-3.15 4.34-2.87 3.62-2.65 3.08-2.5 2.66-2.35 2.3-2.25 2.03-2.16 1.8-2.1 1.58-2.02 1.42-1.98 1.26-1.95 1.12-1.92 1-1.9.9-1.9.8-1.9.7-1.9.62-1.92.54-1.94.45-1.97.4-2 .3-2.06.2-1.8.12" stroke="#1071e5" stroke-width="5" stroke-linejoin="round" fill="none"/><path d="M458.5 217.43l-2.52.05-.1-4.95 2.62-.05zM301.06 397.96h-2.56V393h2.56z" stroke="#1071e5" stroke-width=".05" fill="#1071e5"/><path d="M1241.58-123.5l5.8.13 7.3.46 6.52.67 5.93.87 5.5 1.05 5.15 1.2 4.95 1.38 4.86 1.58 4.9 1.83 5.17 2.16 5.92 2.8 8.63 4.54 22.33 12.2 5.92 2.8 5.18 2.17 4.9 1.82 4.86 1.57 4.95 1.38 5.16 1.2 5.5 1.06 5.92.88 6.52.7 7.3.44 5.8.12" stroke="#635dff" stroke-width="5" stroke-linejoin="round" fill="none"/><path d="M1241.7-125.96l-.1 4.95-2.53-.06v-4.96zM1399.07-80.88v4.95h-2.56v-4.95z" stroke="#635dff" stroke-width=".05" fill="#635dff"/><path d="M420.58-146.06l-1.8.04-4.02.26-3.8.4-3.58.52-3.43.66-3.3.77-3.18.88-3.1 1-3.04 1.14-3 1.26-2.98 1.4-3 1.56-3.02 1.75-3.1 1.96-3.2 2.23-3.4 2.57-3.7 3.05-4.14 3.75-5.1 5-8.28 8.86-18.96 20.86-5.08 4.98-4.16 3.75-3.68 3.05-3.4 2.58-3.2 2.23-3.1 1.96-3.04 1.75-3 1.57-2.97 1.4-3 1.27-3.04 1.13-3.1 1-3.2.9-3.3.77-3.42.65-3.6.52-3.78.4-4.02.25-1.8.04" stroke="#ba23f6" stroke-width="5" stroke-linejoin="round" fill="none"/><path d="M423.08-143.63l-2.5.05-.12-4.95 2.62-.05zM265.64-53.37h-2.56v-4.95h2.56z" stroke="#ba23f6" stroke-width=".05" fill="#ba23f6"/><path d="M1399.07-198.8h133.87v60.26h-133.87z" fill="none"/><use xlink:href="#f" transform="matrix(1,0,0,1,1419.074319396455,-178.80525785242352) translate(0 16.589501953125)"/><path d="M1452.1-18.28h162.72V42h-162.7z" fill="none"/><use xlink:href="#g" transform="matrix(1,0,0,1,1472.11429009958,1.72423433507646) translate(0 16.589501953125)"/><path d="M1454.84 162.25h134.47v60.27h-134.46z" fill="none"/><use xlink:href="#h" transform="matrix(1,0,0,1,1474.8443486933302,182.25372652257653) translate(0 16.589501953125)"/><path d="M12.93 184.82H298.5v60.27H12.93z" fill="none"/><use xlink:href="#i" transform="matrix(1,0,0,1,32.929026427705026,204.81991304601405) translate(0.44185546874999204 16.589501953125)"/><use xlink:href="#j" transform="matrix(1,0,0,1,32.929026427705026,204.81991304601405) translate(158.19673828125 16.589501953125)"/><use xlink:href="#k" transform="matrix(1,0,0,1,32.929026427705026,204.81991304601405) translate(170.604609375 16.589501953125)"/><path d="M133.7-266.5h129.38v60.26H133.7z" fill="none"/><use xlink:href="#l" transform="matrix(1,0,0,1,153.69733697458003,-246.503817422736) translate(0.6273632812499841 16.589501953125)"/><path d="M76.2-176.24h186.88v60.27H76.2z" fill="none"/><use xlink:href="#m" transform="matrix(1,0,0,1,96.20262994332995,-156.23907132898603) translate(0.1326562499999966 16.589501953125)"/><path d="M1452.1 72h214.27v60.25H1452.1z" fill="none"/><use xlink:href="#n" transform="matrix(1,0,0,1,1472.11429009958,91.98898042882655) translate(0 16.589501953125)"/><path d="M48.4 94.56h250.1v60.26H48.4z" fill="none"/><use xlink:href="#o" transform="matrix(1,0,0,1,68.41161431832995,114.55516695226396) translate(0.9244433593750045 16.589501953125)"/><use xlink:href="#j" transform="matrix(1,0,0,1,68.41161431832995,114.55516695226396) translate(123.19673828124999 16.589501953125)"/><use xlink:href="#k" transform="matrix(1,0,0,1,68.41161431832995,114.55516695226396) translate(135.604609375 16.589501953125)"/><path d="M160.38 365.35H298.5v60.26H160.38z" fill="none"/><use xlink:href="#p" transform="matrix(1,0,0,1,180.38488580270507,385.349405233514) translate(0.8977148437499949 16.589501953125)"/><path d="M1112.93 162.25h181.9v60.27h-181.9z" fill="none"/><use xlink:href="#q" transform="matrix(1,0,0,1,1132.9285186152051,182.25372652257653) translate(0 16.589501953125)"/><path d="M-9.37 275.08H298.5v60.27H-9.37z" fill="none"/><use xlink:href="#r" transform="matrix(1,0,0,1,10.630823302705153,295.084659139764) translate(0.14365234374997726 16.589501953125)"/><use xlink:href="#j" transform="matrix(1,0,0,1,10.630823302705153,295.084659139764) translate(161.13537109374997 16.589501953125)"/><use xlink:href="#s" transform="matrix(1,0,0,1,10.630823302705153,295.084659139764) translate(173.54324218749997 16.589501953125)"/><path d="M106.1 4.3h192.4v60.26H106.1z" fill="none"/><use xlink:href="#t" transform="matrix(1,0,0,1,126.11066705270503,24.290420858513983) translate(0.623496093749992 16.589501953125)"/><path d="M1112.93-153.67h126.14v60.26h-126.14z" fill="none"/><use xlink:href="#u" transform="matrix(1,0,0,1,1132.9285186152051,-133.6728848055485) translate(0 16.589501953125)"/><path d="M1297.35 192.4h155" stroke="#e81313" stroke-width="5" stroke-linejoin="round" fill="none"/><path d="M1297.4 194.86h-2.56v-4.95h2.57zM1454.84 194.86h-2.56v-4.95h2.56z" stroke="#e81313" stroke-width=".05" fill="#e81313"/><path d="M1399.07-108.54h217.16v60.26h-217.16z" fill="none"/><use xlink:href="#v" transform="matrix(1,0,0,1,1419.074319396455,-88.54051175867352) translate(0 16.589501953125)"/><path d="M955.43 34.48l2.4.15 2.32.24 2.26.33 2.2.42 2.18.5 2.12.6 2.1.7 2.1.77 2.08.86 2.1 1 2.1 1.1 2.12 1.2 2.16 1.38 2.2 1.54 2.27 1.72 2.35 1.94 2.44 2.2 2.57 2.52 2.72 2.9 2.92 3.4 3.2 4.04 3.58 4.93 4.15 6.26 5.18 8.57 8.1 14.8 23.25 44.47 5.2 8.58 4.14 6.26 3.58 4.93 3.2 4.05 2.92 3.4 2.72 2.9 2.57 2.5 2.45 2.22 2.34 1.94 2.27 1.73 2.2 1.53 2.16 1.38 2.13 1.22 2.1 1.1 2.08 1 2.08.86 2.1.78 2.1.68 2.12.6 2.16.5 2.2.43 2.27.34 2.33.24 2.4.15" stroke="#e81313" stroke-width="5" stroke-linejoin="round" fill="none"/><path d="M955.55 32l-.1 4.95-2.72-.06.2-2.48-.2-2.48zM1112.93 189.9v4.96h-2.57v-4.95z" stroke="#e81313" stroke-width=".05" fill="#e81313"/><path d="M456 215l-1.8.04-4.02.25-3.8.4-3.58.52-3.43.66-3.3.77-3.18.9-3.1 1-3.05 1.12-3 1.27-3 1.4-2.98 1.56-3.02 1.75-3.1 1.97-3.2 2.23-3.4 2.58-3.7 3.05-4.15 3.75-5.1 5-8.26 8.86-18.96 20.84-5.1 5-4.14 3.75-3.7 3.04-3.38 2.58-3.22 2.23-3.1 1.97-3.02 1.75-3 1.56-2.97 1.4-3 1.26-3.04 1.13-3.1 1-3.18.9-3.3.77-3.42.65-3.6.53-3.78.4-4.02.25-1.8.04" stroke="#1071e5" stroke-width="5" stroke-linejoin="round" fill="none"/><path d="M458.5 217.43l-2.52.05-.1-4.95 2.62-.05zM301.06 307.7h-2.56v-4.96h2.56z" stroke="#1071e5" stroke-width=".05" fill="#1071e5"/><path d="M420.58-146.1h-155" stroke="#ba23f6" stroke-width="5" stroke-linejoin="round" fill="none"/><path d="M423.08-143.63h-2.57v-4.95h2.58zM265.64-143.63h-2.56v-4.95h2.56z" stroke="#ba23f6" stroke-width=".05" fill="#ba23f6"/><path d="M1294.62 56.94l5.8-.12 7.3-.46 6.52-.68 5.93-.88 5.5-1.04 5.15-1.2 4.95-1.4 4.86-1.57 4.9-1.84 5.18-2.17 5.93-2.8 8.64-4.55 22.33-12.2 5.92-2.8 5.18-2.17 4.9-1.82 4.86-1.58 4.95-1.38 5.17-1.2 5.5-1.06 5.92-.87 6.5-.7 7.3-.44 5.82-.12" stroke="#fc9432" stroke-width="5" stroke-linejoin="round" fill="none"/><path d="M1294.73 59.4l-2.62.07V54.5l2.53-.04zM1452.1 14.33h-2.55V9.38h2.56z" stroke="#fc9432" stroke-width=".05" fill="#fc9432"/><path d="M1241.58-123.6l5.8-.1 7.3-.47 6.52-.68 5.93-.87 5.5-1.05 5.15-1.2 4.95-1.4 4.86-1.57 4.9-1.83 5.17-2.17 5.92-2.8 8.63-4.54 22.33-12.2 5.92-2.8 5.18-2.17 4.9-1.82 4.86-1.58 4.95-1.38 5.16-1.2 5.5-1.06 5.92-.86 6.52-.7 7.3-.44 5.8-.12" stroke="#635dff" stroke-width="5" stroke-linejoin="round" fill="none"/><path d="M1241.7-121.12l-2.63.06v-4.96l2.52-.05zM1399.07-166.2h-2.56v-4.95h2.57z" stroke="#635dff" stroke-width=".05" fill="#635dff"/><path d="M955.43 34.47l13.08.27 12.33.76 10.34 1.08 9.24 1.37 8.98 1.7 10.34 2.45 36.75 9.65 8.98 1.72 9.24 1.36 10.33 1.08 12.32.78 13.08.26" stroke="#fc9432" stroke-width="5" stroke-linejoin="round" fill="none"/><path d="M955.54 32l-.1 4.95-2.7-.06.2-2.48-.2-2.48zM1112.93 54.5v4.96h-2.57V54.5z" stroke="#fc9432" stroke-width=".05" fill="#fc9432"/><path d="M456 214.95H301" stroke="#1071e5" stroke-width="5" stroke-linejoin="round" fill="none"/><path d="M458.5 217.43h-2.57v-4.95h2.57zM301.06 217.43h-2.56v-4.95h2.56z" stroke="#1071e5" stroke-width=".05" fill="#1071e5"/><path d="M420.58-146.16l-1.8-.04-4.02-.25-3.8-.4-3.58-.53-3.43-.65-3.3-.77-3.18-.9-3.1-1-3.04-1.13-3-1.26-2.98-1.4-3-1.56-3.02-1.75-3.1-1.97-3.2-2.24-3.4-2.6-3.7-3.04-4.14-3.74-5.1-5-8.28-8.87-18.96-20.85-5.08-5-4.16-3.74-3.68-3.05-3.4-2.57-3.2-2.24-3.1-1.97-3.04-1.75-3-1.57-2.97-1.4-3-1.25-3.04-1.13-3.1-1-3.2-.9-3.3-.77-3.42-.65-3.6-.53-3.78-.4-4.02-.25-1.8-.04" stroke="#ba23f6" stroke-width="5" stroke-linejoin="round" fill="none"/><path d="M423.08-148.58v4.95l-2.62-.06.1-4.93zM265.64-238.85v4.95h-2.56v-4.95z" stroke="#ba23f6" stroke-width=".05" fill="#ba23f6"/><path d="M710.43 34.36l-1.8-.12-2.07-.2-2-.3-1.98-.4-1.94-.44-1.9-.53-1.92-.62-1.9-.7-1.9-.8-1.9-.9-1.9-1-1.96-1.13-2-1.26-2.02-1.4-2.1-1.6-2.14-1.8-2.25-2-2.36-2.32-2.5-2.66-2.66-3.08-2.86-3.62-3.15-4.33-3.52-5.3-4.06-6.75-5-9.14-7.22-14.6-28.2-61-5-9.14-4.08-6.75-3.52-5.3-3.14-4.34-2.87-3.62-2.64-3.07-2.5-2.65-2.35-2.3-2.24-2.04-2.16-1.78-2.1-1.6-2.02-1.4-1.98-1.26-1.95-1.13-1.92-1-1.9-.9-1.9-.8-1.9-.7-1.9-.62-1.9-.53-1.96-.46-1.97-.38-2-.3-2.06-.2-1.8-.12" stroke="#ba23f6" stroke-width="5" stroke-linejoin="round" fill="none"/><path d="M713.12 31.95l-.2 2.47.2 2.48-2.8-.06.1-4.95zM555.5-148.58v4.95h-2.57v-4.95z" stroke="#ba23f6" stroke-width=".05" fill="#ba23f6"/><path d="M456 214.9l-1.8-.04-4.02-.25-3.8-.4-3.58-.52-3.43-.65-3.3-.77-3.18-.9-3.1-1-3.05-1.13-3-1.26-3-1.4-2.98-1.57-3.02-1.75-3.1-1.96-3.2-2.25-3.4-2.58-3.7-3.05-4.15-3.74-5.1-5-8.26-8.87-18.96-20.84-5.1-5-4.14-3.74-3.7-3.05-3.38-2.58-3.22-2.25-3.1-1.96-3.02-1.76-3-1.57-2.97-1.4-3-1.26-3.04-1.12-3.1-1-3.18-.9-3.3-.77-3.42-.64-3.6-.53-3.78-.4-4.02-.25-1.8-.04" stroke="#1071e5" stroke-width="5" stroke-linejoin="round" fill="none"/><path d="M458.5 212.48v4.95l-2.62-.06.1-4.94zM301.06 122.2v4.96h-2.56v-4.95z" stroke="#1071e5" stroke-width=".05" fill="#1071e5"/><path d="M456 214.9l-1.8-.13-2.07-.2-2-.3-1.98-.4-1.94-.44-1.9-.54-1.9-.62-1.9-.7-1.9-.8-1.9-.9-1.93-1-1.94-1.13-2-1.26-2.02-1.43-2.08-1.58-2.16-1.8-2.25-2.02-2.34-2.3-2.5-2.67-2.65-3.07-2.86-3.62-3.14-4.32-3.52-5.3-4.07-6.75-5-9.14-7.2-14.6-28.2-61-5-9.15-4.1-6.75-3.5-5.3-3.15-4.34-2.87-3.62-2.65-3.08-2.5-2.65-2.35-2.3-2.25-2.03-2.16-1.78-2.1-1.6-2.02-1.4-1.98-1.27-1.95-1.13-1.92-1-1.9-.9-1.9-.8-1.9-.7-1.9-.62-1.92-.53-1.94-.46-1.97-.38-2-.3-2.06-.22-1.8-.1" stroke="#1071e5" stroke-width="5" stroke-linejoin="round" fill="none"/><path d="M458.5 212.48v4.95l-2.62-.06.1-4.95zM301.06 31.95v4.95h-2.56v-4.95z" stroke="#1071e5" stroke-width=".05" fill="#1071e5"/><path d="M955.43 34.37l2.4-.15 2.32-.24 2.26-.34 2.2-.42 2.18-.5 2.12-.6 2.1-.68 2.1-.78 2.08-.88 2.1-.98 2.1-1.1 2.12-1.23 2.16-1.37 2.2-1.53 2.27-1.73 2.35-1.94 2.44-2.2 2.57-2.52 2.72-2.9 2.92-3.4 3.2-4.04 3.58-4.92 4.15-6.27 5.18-8.58 8.1-14.8 23.25-44.46 5.2-8.57 4.14-6.26 3.58-4.93 3.2-4.04 2.92-3.4 2.72-2.9 2.57-2.52 2.45-2.2 2.34-1.94 2.27-1.72 2.2-1.54 2.16-1.37 2.13-1.22 2.1-1.1 2.08-.98 2.08-.88 2.1-.77 2.1-.7 2.12-.58 2.16-.5 2.2-.43 2.27-.33 2.33-.24 2.4-.15" stroke="#635dff" stroke-width="5" stroke-linejoin="round" fill="none"/><path d="M955.55 36.84l-2.82.06.2-2.48-.2-2.47 2.7-.05zM1112.93-121.07h-2.57v-4.95h2.57z" stroke="#635dff" stroke-width=".05" fill="#635dff"/><path d="M1294.62 57.04l5.8.12 7.3.46 6.52.68 5.93.87 5.5 1.05 5.15 1.2 4.95 1.4 4.86 1.57 4.9 1.8 5.18 2.2 5.93 2.78 8.64 4.54 22.33 12.2 5.92 2.8 5.18 2.18 4.9 1.82 4.86 1.58 4.95 1.38 5.17 1.2 5.5 1.06 5.92.87 6.5.7 7.3.45 5.82.12" stroke="#fc9432" stroke-width="5" stroke-linejoin="round" fill="none"/><path d="M1294.73 54.57l-.1 4.95-2.52-.06V54.5zM1452.1 99.65v4.95h-2.55v-4.95z" stroke="#fc9432" stroke-width=".05" fill="#fc9432"/><path d="M710.43 34.5l-1.8.1-2.07.22-2 .3-1.98.37-1.94.45-1.9.53-1.92.62-1.9.7-1.9.8-1.9.9-1.9 1-1.96 1.13-2 1.26-2.02 1.4-2.1 1.6-2.14 1.77-2.25 2.03-2.36 2.3-2.5 2.66-2.66 3.08-2.86 3.63-3.15 4.33-3.52 5.3-4.06 6.75-5 9.14-7.22 14.6-28.2 61-5 9.13-4.08 6.74-3.52 5.3-3.14 4.34-2.87 3.63-2.64 3.08-2.5 2.67-2.35 2.3-2.24 2.03-2.16 1.8-2.1 1.57-2.02 1.42-1.98 1.25-1.95 1.12-1.92 1-1.9.9-1.9.8-1.9.7-1.9.62-1.9.53-1.96.45-1.97.38-2 .3-2.06.2-1.8.13" stroke="#1071e5" stroke-width="5" stroke-linejoin="round" fill="none"/><path d="M712.93 34.42l.2 2.47-2.72.05-.1-4.95 2.82-.06zM555.5 217.43h-2.57v-4.95h2.56z" stroke="#1071e5" stroke-width=".05" fill="#1071e5"/><path d="M1112.93 26.86h179.18v60.26h-179.17z" fill="none"/><use xlink:href="#a" transform="matrix(1,0,0,1,1132.9285186152051,46.856607381951505) translate(0 16.589501953125)"/><path d="M78.55-85.97h184.53v60.26H78.55z" fill="none"/><use xlink:href="#b" transform="matrix(1,0,0,1,98.5485186152049,-65.97432523523602) translate(0.47854492187497044 16.589501953125)"/><path d="M712.93 34.42a40 40 0 0 1 40-40h160a40 40 0 0 1 40 40 40 40 0 0 1-40 40h-160a40 40 0 0 1-40-40z" fill="#fff"/><use xlink:href="#c" transform="matrix(1,0,0,1,712.9285186152051,-5.577206094610972) translate(24.541015625 47.275390625)"/><path d="M423.08-176.24h129.85v60.27H423.08z" fill="none"/><use xlink:href="#d" transform="matrix(1,0,0,1,443.07997369333,-156.23907132898603) translate(0.1614550781249875 16.589501953125)"/><path d="M458.5 184.82h94.43v60.27H458.5z" fill="none"/><use xlink:href="#e" transform="matrix(1,0,0,1,478.49717095895494,204.81991304601405) translate(0.5786523437499937 16.589501953125)"/><path d="M456 215.02l-1.8.1-2.07.23-2 .3-1.98.37-1.94.45-1.9.54-1.9.63-1.9.7-1.9.8-1.9.9-1.93 1-1.94 1.13-2 1.26-2.02 1.4-2.08 1.6-2.16 1.78-2.25 2.03-2.34 2.3-2.5 2.66-2.65 3.07-2.86 3.62-3.14 4.33-3.52 5.3-4.07 6.75-5 9.14-7.2 14.6-28.2 61-5 9.14-4.1 6.74-3.5 5.3-3.15 4.34-2.87 3.62-2.65 3.08-2.5 2.66-2.35 2.3-2.25 2.03-2.16 1.8-2.1 1.58-2.02 1.42-1.98 1.26-1.95 1.12-1.92 1-1.9.9-1.9.8-1.9.7-1.9.62-1.92.54-1.94.45-1.97.4-2 .3-2.06.2-1.8.12" stroke="#1071e5" stroke-width="5" stroke-linejoin="round" fill="none"/><path d="M458.5 217.43l-2.52.05-.1-4.95 2.62-.05zM301.06 397.96h-2.56V393h2.56z" stroke="#1071e5" stroke-width=".05" fill="#1071e5"/><path d="M1241.58-123.5l5.8.13 7.3.46 6.52.67 5.93.87 5.5 1.05 5.15 1.2 4.95 1.38 4.86 1.58 4.9 1.83 5.17 2.16 5.92 2.8 8.63 4.54 22.33 12.2 5.92 2.8 5.18 2.17 4.9 1.82 4.86 1.57 4.95 1.38 5.16 1.2 5.5 1.06 5.92.88 6.52.7 7.3.44 5.8.12" stroke="#635dff" stroke-width="5" stroke-linejoin="round" fill="none"/><path d="M1241.7-125.96l-.1 4.95-2.53-.06v-4.96zM1399.07-80.88v4.95h-2.56v-4.95z" stroke="#635dff" stroke-width=".05" fill="#635dff"/><path d="M420.58-146.06l-1.8.04-4.02.26-3.8.4-3.58.52-3.43.66-3.3.77-3.18.88-3.1 1-3.04 1.14-3 1.26-2.98 1.4-3 1.56-3.02 1.75-3.1 1.96-3.2 2.23-3.4 2.57-3.7 3.05-4.14 3.75-5.1 5-8.28 8.86-18.96 20.86-5.08 4.98-4.16 3.75-3.68 3.05-3.4 2.58-3.2 2.23-3.1 1.96-3.04 1.75-3 1.57-2.97 1.4-3 1.27-3.04 1.13-3.1 1-3.2.9-3.3.77-3.42.65-3.6.52-3.78.4-4.02.25-1.8.04" stroke="#ba23f6" stroke-width="5" stroke-linejoin="round" fill="none"/><path d="M423.08-143.63l-2.5.05-.12-4.95 2.62-.05zM265.64-53.37h-2.56v-4.95h2.56z" stroke="#ba23f6" stroke-width=".05" fill="#ba23f6"/><path d="M1399.07-198.8h133.87v60.26h-133.87z" fill="none"/><use xlink:href="#f" transform="matrix(1,0,0,1,1419.074319396455,-178.80525785242352) translate(0 16.589501953125)"/><path d="M1452.1-18.28h162.72V42h-162.7z" fill="none"/><use xlink:href="#g" transform="matrix(1,0,0,1,1472.11429009958,1.72423433507646) translate(0 16.589501953125)"/><path d="M1454.84 162.25h134.47v60.27h-134.46z" fill="none"/><use xlink:href="#h" transform="matrix(1,0,0,1,1474.8443486933302,182.25372652257653) translate(0 16.589501953125)"/><path d="M12.93 184.82H298.5v60.27H12.93z" fill="none"/><use xlink:href="#i" transform="matrix(1,0,0,1,32.929026427705026,204.81991304601405) translate(0.44185546874999204 16.589501953125)"/><use xlink:href="#j" transform="matrix(1,0,0,1,32.929026427705026,204.81991304601405) translate(158.19673828125 16.589501953125)"/><use xlink:href="#k" transform="matrix(1,0,0,1,32.929026427705026,204.81991304601405) translate(170.604609375 16.589501953125)"/><path d="M133.7-266.5h129.38v60.26H133.7z" fill="none"/><use xlink:href="#l" transform="matrix(1,0,0,1,153.69733697458003,-246.503817422736) translate(0.6273632812499841 16.589501953125)"/><path d="M76.2-176.24h186.88v60.27H76.2z" fill="none"/><use xlink:href="#m" transform="matrix(1,0,0,1,96.20262994332995,-156.23907132898603) translate(0.1326562499999966 16.589501953125)"/><path d="M1452.1 72h214.27v60.25H1452.1z" fill="none"/><use xlink:href="#n" transform="matrix(1,0,0,1,1472.11429009958,91.98898042882655) translate(0 16.589501953125)"/><path d="M48.4 94.56h250.1v60.26H48.4z" fill="none"/><use xlink:href="#o" transform="matrix(1,0,0,1,68.41161431832995,114.55516695226396) translate(0.9244433593750045 16.589501953125)"/><use xlink:href="#j" transform="matrix(1,0,0,1,68.41161431832995,114.55516695226396) translate(123.19673828124999 16.589501953125)"/><use xlink:href="#k" transform="matrix(1,0,0,1,68.41161431832995,114.55516695226396) translate(135.604609375 16.589501953125)"/><path d="M160.38 365.35H298.5v60.26H160.38z" fill="none"/><use xlink:href="#p" transform="matrix(1,0,0,1,180.38488580270507,385.349405233514) translate(0.8977148437499949 16.589501953125)"/><path d="M1112.93 162.25h181.9v60.27h-181.9z" fill="none"/><use xlink:href="#q" transform="matrix(1,0,0,1,1132.9285186152051,182.25372652257653) translate(0 16.589501953125)"/><path d="M-9.37 275.08H298.5v60.27H-9.37z" fill="none"/><use xlink:href="#r" transform="matrix(1,0,0,1,10.630823302705153,295.084659139764) translate(0.14365234374997726 16.589501953125)"/><use xlink:href="#j" transform="matrix(1,0,0,1,10.630823302705153,295.084659139764) translate(161.13537109374997 16.589501953125)"/><use xlink:href="#s" transform="matrix(1,0,0,1,10.630823302705153,295.084659139764) translate(173.54324218749997 16.589501953125)"/><path d="M106.1 4.3h192.4v60.26H106.1z" fill="none"/><use xlink:href="#t" transform="matrix(1,0,0,1,126.11066705270503,24.290420858513983) translate(0.623496093749992 16.589501953125)"/><path d="M1112.93-153.67h126.14v60.26h-126.14z" fill="none"/><use xlink:href="#u" transform="matrix(1,0,0,1,1132.9285186152051,-133.6728848055485) translate(0 16.589501953125)"/><path d="M1297.35 192.4h155" stroke="#e81313" stroke-width="5" stroke-linejoin="round" fill="none"/><path d="M1297.4 194.86h-2.56v-4.95h2.57zM1454.84 194.86h-2.56v-4.95h2.56z" stroke="#e81313" stroke-width=".05" fill="#e81313"/><path d="M1399.07-108.54h217.16v60.26h-217.16z" fill="none"/><use xlink:href="#v" transform="matrix(1,0,0,1,1419.074319396455,-88.54051175867352) translate(0 16.589501953125)"/><path d="M955.43 34.48l2.4.15 2.32.24 2.26.33 2.2.42 2.18.5 2.12.6 2.1.7 2.1.77 2.08.86 2.1 1 2.1 1.1 2.12 1.2 2.16 1.38 2.2 1.54 2.27 1.72 2.35 1.94 2.44 2.2 2.57 2.52 2.72 2.9 2.92 3.4 3.2 4.04 3.58 4.93 4.15 6.26 5.18 8.57 8.1 14.8 23.25 44.47 5.2 8.58 4.14 6.26 3.58 4.93 3.2 4.05 2.92 3.4 2.72 2.9 2.57 2.5 2.45 2.22 2.34 1.94 2.27 1.73 2.2 1.53 2.16 1.38 2.13 1.22 2.1 1.1 2.08 1 2.08.86 2.1.78 2.1.68 2.12.6 2.16.5 2.2.43 2.27.34 2.33.24 2.4.15" stroke="#e81313" stroke-width="5" stroke-linejoin="round" fill="none"/><path d="M955.55 32l-.1 4.95-2.72-.06.2-2.48-.2-2.48zM1112.93 189.9v4.96h-2.57v-4.95z" stroke="#e81313" stroke-width=".05" fill="#e81313"/><path d="M456 215l-1.8.04-4.02.25-3.8.4-3.58.52-3.43.66-3.3.77-3.18.9-3.1 1-3.05 1.12-3 1.27-3 1.4-2.98 1.56-3.02 1.75-3.1 1.97-3.2 2.23-3.4 2.58-3.7 3.05-4.15 3.75-5.1 5-8.26 8.86-18.96 20.84-5.1 5-4.14 3.75-3.7 3.04-3.38 2.58-3.22 2.23-3.1 1.97-3.02 1.75-3 1.56-2.97 1.4-3 1.26-3.04 1.13-3.1 1-3.18.9-3.3.77-3.42.65-3.6.53-3.78.4-4.02.25-1.8.04" stroke="#1071e5" stroke-width="5" stroke-linejoin="round" fill="none"/><path d="M458.5 217.43l-2.52.05-.1-4.95 2.62-.05zM301.06 307.7h-2.56v-4.96h2.56z" stroke="#1071e5" stroke-width=".05" fill="#1071e5"/><path d="M420.58-146.1h-155" stroke="#ba23f6" stroke-width="5" stroke-linejoin="round" fill="none"/><path d="M423.08-143.63h-2.57v-4.95h2.58zM265.64-143.63h-2.56v-4.95h2.56z" stroke="#ba23f6" stroke-width=".05" fill="#ba23f6"/><path d="M1294.62 56.94l5.8-.12 7.3-.46 6.52-.68 5.93-.88 5.5-1.04 5.15-1.2 4.95-1.4 4.86-1.57 4.9-1.84 5.18-2.17 5.93-2.8 8.64-4.55 22.33-12.2 5.92-2.8 5.18-2.17 4.9-1.82 4.86-1.58 4.95-1.38 5.17-1.2 5.5-1.06 5.92-.87 6.5-.7 7.3-.44 5.82-.12" stroke="#fc9432" stroke-width="5" stroke-linejoin="round" fill="none"/><path d="M1294.73 59.4l-2.62.07V54.5l2.53-.04zM1452.1 14.33h-2.55V9.38h2.56z" stroke="#fc9432" stroke-width=".05" fill="#fc9432"/><path d="M1241.58-123.6l5.8-.1 7.3-.47 6.52-.68 5.93-.87 5.5-1.05 5.15-1.2 4.95-1.4 4.86-1.57 4.9-1.83 5.17-2.17 5.92-2.8 8.63-4.54 22.33-12.2 5.92-2.8 5.18-2.17 4.9-1.82 4.86-1.58 4.95-1.38 5.16-1.2 5.5-1.06 5.92-.86 6.52-.7 7.3-.44 5.8-.12" stroke="#635dff" stroke-width="5" stroke-linejoin="round" fill="none"/><path d="M1241.7-121.12l-2.63.06v-4.96l2.52-.05zM1399.07-166.2h-2.56v-4.95h2.57z" stroke="#635dff" stroke-width=".05" fill="#635dff"/><path d="M955.43 34.47l13.08.27 12.33.76 10.34 1.08 9.24 1.37 8.98 1.7 10.34 2.45 36.75 9.65 8.98 1.72 9.24 1.36 10.33 1.08 12.32.78 13.08.26" stroke="#fc9432" stroke-width="5" stroke-linejoin="round" fill="none"/><path d="M955.54 32l-.1 4.95-2.7-.06.2-2.48-.2-2.48zM1112.93 54.5v4.96h-2.57V54.5z" stroke="#fc9432" stroke-width=".05" fill="#fc9432"/><path d="M456 214.95H301" stroke="#1071e5" stroke-width="5" stroke-linejoin="round" fill="none"/><path d="M458.5 217.43h-2.57v-4.95h2.57zM301.06 217.43h-2.56v-4.95h2.56z" stroke="#1071e5" stroke-width=".05" fill="#1071e5"/><path d="M420.58-146.16l-1.8-.04-4.02-.25-3.8-.4-3.58-.53-3.43-.65-3.3-.77-3.18-.9-3.1-1-3.04-1.13-3-1.26-2.98-1.4-3-1.56-3.02-1.75-3.1-1.97-3.2-2.24-3.4-2.6-3.7-3.04-4.14-3.74-5.1-5-8.28-8.87-18.96-20.85-5.08-5-4.16-3.74-3.68-3.05-3.4-2.57-3.2-2.24-3.1-1.97-3.04-1.75-3-1.57-2.97-1.4-3-1.25-3.04-1.13-3.1-1-3.2-.9-3.3-.77-3.42-.65-3.6-.53-3.78-.4-4.02-.25-1.8-.04" stroke="#ba23f6" stroke-width="5" stroke-linejoin="round" fill="none"/><path d="M423.08-148.58v4.95l-2.62-.06.1-4.93zM265.64-238.85v4.95h-2.56v-4.95z" stroke="#ba23f6" stroke-width=".05" fill="#ba23f6"/><path d="M710.43 34.36l-1.8-.12-2.07-.2-2-.3-1.98-.4-1.94-.44-1.9-.53-1.92-.62-1.9-.7-1.9-.8-1.9-.9-1.9-1-1.96-1.13-2-1.26-2.02-1.4-2.1-1.6-2.14-1.8-2.25-2-2.36-2.32-2.5-2.66-2.66-3.08-2.86-3.62-3.15-4.33-3.52-5.3-4.06-6.75-5-9.14-7.22-14.6-28.2-61-5-9.14-4.08-6.75-3.52-5.3-3.14-4.34-2.87-3.62-2.64-3.07-2.5-2.65-2.35-2.3-2.24-2.04-2.16-1.78-2.1-1.6-2.02-1.4-1.98-1.26-1.95-1.13-1.92-1-1.9-.9-1.9-.8-1.9-.7-1.9-.62-1.9-.53-1.96-.46-1.97-.38-2-.3-2.06-.2-1.8-.12" stroke="#ba23f6" stroke-width="5" stroke-linejoin="round" fill="none"/><path d="M713.12 31.95l-.2 2.47.2 2.48-2.8-.06.1-4.95zM555.5-148.58v4.95h-2.57v-4.95z" stroke="#ba23f6" stroke-width=".05" fill="#ba23f6"/><path d="M456 214.9l-1.8-.04-4.02-.25-3.8-.4-3.58-.52-3.43-.65-3.3-.77-3.18-.9-3.1-1-3.05-1.13-3-1.26-3-1.4-2.98-1.57-3.02-1.75-3.1-1.96-3.2-2.25-3.4-2.58-3.7-3.05-4.15-3.74-5.1-5-8.26-8.87-18.96-20.84-5.1-5-4.14-3.74-3.7-3.05-3.38-2.58-3.22-2.25-3.1-1.96-3.02-1.76-3-1.57-2.97-1.4-3-1.26-3.04-1.12-3.1-1-3.18-.9-3.3-.77-3.42-.64-3.6-.53-3.78-.4-4.02-.25-1.8-.04" stroke="#1071e5" stroke-width="5" stroke-linejoin="round" fill="none"/><path d="M458.5 212.48v4.95l-2.62-.06.1-4.94zM301.06 122.2v4.96h-2.56v-4.95z" stroke="#1071e5" stroke-width=".05" fill="#1071e5"/><path d="M456 214.9l-1.8-.13-2.07-.2-2-.3-1.98-.4-1.94-.44-1.9-.54-1.9-.62-1.9-.7-1.9-.8-1.9-.9-1.93-1-1.94-1.13-2-1.26-2.02-1.43-2.08-1.58-2.16-1.8-2.25-2.02-2.34-2.3-2.5-2.67-2.65-3.07-2.86-3.62-3.14-4.32-3.52-5.3-4.07-6.75-5-9.14-7.2-14.6-28.2-61-5-9.15-4.1-6.75-3.5-5.3-3.15-4.34-2.87-3.62-2.65-3.08-2.5-2.65-2.35-2.3-2.25-2.03-2.16-1.78-2.1-1.6-2.02-1.4-1.98-1.27-1.95-1.13-1.92-1-1.9-.9-1.9-.8-1.9-.7-1.9-.62-1.92-.53-1.94-.46-1.97-.38-2-.3-2.06-.22-1.8-.1" stroke="#1071e5" stroke-width="5" stroke-linejoin="round" fill="none"/><path d="M458.5 212.48v4.95l-2.62-.06.1-4.95zM301.06 31.95v4.95h-2.56v-4.95z" stroke="#1071e5" stroke-width=".05" fill="#1071e5"/><path d="M955.43 34.37l2.4-.15 2.32-.24 2.26-.34 2.2-.42 2.18-.5 2.12-.6 2.1-.68 2.1-.78 2.08-.88 2.1-.98 2.1-1.1 2.12-1.23 2.16-1.37 2.2-1.53 2.27-1.73 2.35-1.94 2.44-2.2 2.57-2.52 2.72-2.9 2.92-3.4 3.2-4.04 3.58-4.92 4.15-6.27 5.18-8.58 8.1-14.8 23.25-44.46 5.2-8.57 4.14-6.26 3.58-4.93 3.2-4.04 2.92-3.4 2.72-2.9 2.57-2.52 2.45-2.2 2.34-1.94 2.27-1.72 2.2-1.54 2.16-1.37 2.13-1.22 2.1-1.1 2.08-.98 2.08-.88 2.1-.77 2.1-.7 2.12-.58 2.16-.5 2.2-.43 2.27-.33 2.33-.24 2.4-.15" stroke="#635dff" stroke-width="5" stroke-linejoin="round" fill="none"/><path d="M955.55 36.84l-2.82.06.2-2.48-.2-2.47 2.7-.05zM1112.93-121.07h-2.57v-4.95h2.57z" stroke="#635dff" stroke-width=".05" fill="#635dff"/><defs><path d="M180 0v-1490h270l367 940c28 72 75 218 110 339 35-117 81-264 110-339l362-940h271V0h-187c2-448-5-837 7-1287-157 497-311 829-483 1287H842C666-458 514-784 354-1284c12 438 5 843 7 1284H180" id="w"/><path d="M613 24c-304 0-509-231-509-576 0-350 205-580 509-580 305 0 511 230 511 580 0 345-206 576-511 576zm0-161c226 0 329-195 329-415 0-222-103-419-329-419-223 0-326 196-326 419 0 220 103 415 326 415" id="x"/><path d="M338-670V0H158v-1118h173l1 207c72-158 192-221 342-221 226 0 378 139 378 422V0H872v-695c0-172-96-275-252-275-161 0-282 109-282 300" id="y"/><path d="M598-1118v154H368v674c0 100 37 144 132 144 23 0 62-6 92-12L629-6c-37 13-88 20-134 20-193 0-307-107-307-290v-688H20v-154h168v-266h180v266h230" id="z"/><path d="M471 26C259 26 90-98 90-318c0-256 228-303 435-329 202-27 287-16 287-108 0-139-79-219-234-219-161 0-248 86-283 164l-173-57c86-203 278-265 451-265 150 0 419 46 419 395V0H815v-152h-12C765-73 660 26 471 26zm31-159c199 0 310-134 310-271v-155c-30 35-226 55-295 64-131 17-246 59-246 186 0 116 97 176 231 176" id="A"/><path d="M611 442c-248 0-391-105-460-228l146-94c47 65 117 165 314 165 178 0 307-82 307-266v-224h-17C863-141 792-18 576-18c-268 0-472-195-472-546 0-346 197-568 476-568 216 0 288 133 326 193h17v-179h175V29c0 289-215 413-487 413zm-5-620c203 0 314-146 314-390 0-237-108-403-314-403-213 0-319 180-319 403 0 230 109 390 319 390" id="B"/><path d="M628 24c-324 0-524-230-524-574 0-343 198-582 503-582 237 0 487 146 487 559v75H286c9 234 145 362 343 362 132 0 231-58 273-172l174 48C1024-91 857 24 628 24zM287-650h624c-17-190-120-322-304-322-192 0-309 151-320 322" id="C"/><path d="M537 14c-226 0-379-139-379-422v-710h180v695c0 172 97 275 253 275 160 0 281-109 281-300v-670h181V0H879v-209C806-46 684 14 537 14" id="D"/><path d="M678-1118v154H420V0H240v-964H20v-154h220v-149c0-194 155-293 318-293 85 0 141 18 168 30l-50 154c-19-6-47-17-97-17-111 0-159 58-159 166v109h258" id="E"/><path d="M409 0L70-1118h191c89 329 165 560 243 925 75-353 154-601 240-925h192c85 325 161 564 235 922 77-354 157-598 244-922h191L1267 0h-179c-86-307-176-590-250-913C763-588 675-308 588 0H409" id="F"/><path d="M577 24c-279 0-473-224-473-580 0-354 195-576 474-576 218 0 287 134 324 193h14v-551h180V0H922v-173h-20C865-111 790 24 577 24zm27-161c203 0 314-172 314-421 0-247-108-413-314-413-212 0-317 181-317 413 0 235 108 421 317 421" id="G"/><g id="a"><use transform="matrix(0.008173828125000001,0,0,0.008173828125000001,0,0)" xlink:href="#w"/><use transform="matrix(0.008173828125000001,0,0,0.008173828125000001,15.121582031250002,0)" xlink:href="#x"/><use transform="matrix(0.008173828125000001,0,0,0.008173828125000001,25.15904296875,0)" xlink:href="#y"/><use transform="matrix(0.008173828125000001,0,0,0.008173828125000001,35.049375,0)" xlink:href="#z"/><use transform="matrix(0.008173828125000001,0,0,0.008173828125000001,40.607578124999996,0)" xlink:href="#A"/><use transform="matrix(0.008173828125000001,0,0,0.008173828125000001,50.007480468749996,0)" xlink:href="#B"/><use transform="matrix(0.008173828125000001,0,0,0.008173828125000001,60.27380859375,0)" xlink:href="#C"/><use transform="matrix(0.008173828125000001,0,0,0.008173828125000001,70.1968359375,0)" xlink:href="#A"/><use transform="matrix(0.008173828125000001,0,0,0.008173828125000001,79.59673828125,0)" xlink:href="#D"/><use transform="matrix(0.008173828125000001,0,0,0.008173828125000001,89.495244140625,0)" xlink:href="#E"/><use transform="matrix(0.008173828125000001,0,0,0.008173828125000001,95.93622070312502,0)" xlink:href="#F"/><use transform="matrix(0.008173828125000001,0,0,0.008173828125000001,109.63555664062501,0)" xlink:href="#A"/><use transform="matrix(0.008173828125000001,0,0,0.008173828125000001,119.03545898437501,0)" xlink:href="#y"/><use transform="matrix(0.008173828125000001,0,0,0.008173828125000001,128.925791015625,0)" xlink:href="#G"/></g><path d="M180 0v-1490h528c311 0 458 177 458 395 0 191-114 278-244 313v14c139 9 302 137 302 371 0 225-148 397-499 397H180zm190-168h350c232 0 321-102 321-231 0-149-120-277-311-277H370v508zm0-668h328c160 0 286-101 286-255 0-129-87-231-280-231H370v486" id="H"/><path d="M158 0v-1118h180V0H158zm91-1301c-68 0-125-53-125-119s57-119 125-119c69 0 126 53 126 119s-57 119-126 119" id="I"/><path d="M692-1560L212 224H46l480-1784h166" id="J"/><path d="M657 26c-323 0-524-166-541-416h195c15 169 171 246 346 246 202 0 356-106 356-265 5-203-294-238-475-293-239-73-380-191-380-389 0-252 224-419 512-419 294 0 499 171 508 396H992c-17-145-151-228-328-228-193 0-321 102-321 242 0 156 175 211 284 241l149 41c160 44 422 134 422 412 0 244-197 432-541 432" id="K"/><path d="M613 24c-304 0-509-231-509-576 0-350 205-580 509-580 216 0 392 114 453 309l-173 49c-33-115-133-197-280-197-223 0-326 196-326 419 0 220 103 415 326 415 150 0 252-85 285-206l172 49C1010-95 832 24 613 24" id="L"/><path d="M338-670V0H158v-1490h180v566c73-149 190-208 336-208 226 0 379 139 379 422V0H872v-695c0-172-96-275-252-275-161 0-282 109-282 300" id="M"/><g id="b"><use transform="matrix(0.008173828125000001,0,0,0.008173828125000001,0,0)" xlink:href="#H"/><use transform="matrix(0.008173828125000001,0,0,0.008173828125000001,10.952929687500001,0)" xlink:href="#I"/><use transform="matrix(0.008173828125000001,0,0,0.008173828125000001,15.007148437500001,0)" xlink:href="#C"/><use transform="matrix(0.008173828125000001,0,0,0.008173828125000001,24.766699218750002,0)" xlink:href="#B"/><use transform="matrix(0.008173828125000001,0,0,0.008173828125000001,35.03302734375001,0)" xlink:href="#C"/><use transform="matrix(0.008173828125000001,0,0,0.008173828125000001,44.792578125000006,0)" xlink:href="#y"/><use transform="matrix(0.008173828125000001,0,0,0.008173828125000001,54.68291015625001,0)" xlink:href="#J"/><use transform="matrix(0.008173828125000001,0,0,0.008173828125000001,60.7151953125,0)" xlink:href="#K"/><use transform="matrix(0.008173828125000001,0,0,0.008173828125000001,71.45560546875001,0)" xlink:href="#L"/><use transform="matrix(0.008173828125000001,0,0,0.008173828125000001,81.01898437500002,0)" xlink:href="#M"/><use transform="matrix(0.008173828125000001,0,0,0.008173828125000001,90.91749023437501,0)" xlink:href="#y"/><use transform="matrix(0.008173828125000001,0,0,0.008173828125000001,100.807822265625,0)" xlink:href="#C"/><use transform="matrix(0.008173828125000001,0,0,0.008173828125000001,110.567373046875,0)" xlink:href="#I"/><use transform="matrix(0.008173828125000001,0,0,0.008173828125000001,114.62159179687501,0)" xlink:href="#G"/><use transform="matrix(0.008173828125000001,0,0,0.008173828125000001,124.871572265625,0)" xlink:href="#C"/><use transform="matrix(0.008173828125000001,0,0,0.008173828125000001,134.63112304687502,0)" xlink:href="#y"/></g><path d="M449 0L49-1490h333c89 395 194 758 253 1185 65-426 176-790 269-1185h317c93 394 201 758 268 1181 60-425 164-788 253-1181h334L1675 0h-348c-90-376-204-711-266-1118C1004-714 886-373 798 0H449" id="N"/><path d="M128 0v-1118h300V0H128zm150-1264c-91 0-165-68-165-154 0-85 74-154 165-154 90 0 165 69 165 154 0 86-75 154-165 154" id="O"/><path d="M128 0v-1118h290v195h12c54-169 184-238 367-200v268c-27-8-86-15-130-15-138 0-239 95-239 234V0H128" id="P"/><path d="M683-1118v229H474v562c0 71 29 104 102 104 23 0 73-7 95-13l43 225C647 9 580 16 520 16 296 16 174-96 174-301v-588H20v-229h154v-266h300v266h209" id="Q"/><path d="M572 22C302 22 117-98 78-306l279-48c29 105 101 156 224 156 114 0 185-48 185-115 0-118-228-130-337-155-215-49-322-150-322-317 0-215 187-347 470-347 265 0 424 116 466 298l-266 47c-24-76-87-130-196-130-98 0-174 46-174 113 0 56 38 95 144 117l201 40c216 44 320 143 320 302 0 220-207 367-500 367" id="R"/><path d="M628 22C291 22 81-210 81-554c0-346 210-578 547-578 265 0 455 142 497 372l-279 52c-25-116-99-188-215-188-160 0-244 139-244 341 0 200 84 341 244 341 116 0 193-74 217-195l279 51C1085-123 896 22 628 22" id="S"/><path d="M428-647V0H128v-1490h294v586c65-146 175-228 341-228 232 0 385 159 385 421V0H847v-659c0-139-76-222-202-222-128 0-217 86-217 234" id="T"/><path d="M440 22C227 22 68-92 68-313c0-250 202-322 422-343 195-21 271-24 271-105 0-95-63-149-175-149-116 0-187 57-211 129l-275-46c57-194 237-305 487-305 240 0 474 108 474 379V0H777v-155h-10C713-51 605 22 440 22zm85-211c140 0 238-93 238-211v-121c-37 26-156 42-222 51-111 16-185 59-185 149 0 87 70 132 169 132" id="U"/><path d="M750-1118v229H516V0H217v-889H20v-229h197v-86c0-238 156-356 363-356 94 0 178 20 215 31l-54 226c-25-7-61-15-100-15-123-3-131 84-125 200h234" id="V"/><path d="M428-647V0H128v-1118h283l4 231c63-156 176-245 348-245 232 0 384 159 384 421V0H847v-659c0-139-76-222-202-222-128 0-217 86-217 234" id="W"/><path d="M428-1490V0H128v-1490h300" id="X"/><path d="M120 396l69-226c123 42 245 23 254-107l8-60L31-1118h319c87 288 199 559 259 872 72-308 185-583 277-872h315L726 132c-68 181-186 294-410 294-79 0-153-13-196-30" id="Y"/><path d="M633 22C291 22 81-200 81-553c0-345 210-579 537-579 292 0 525 185 525 567v84H378c7 183 109 277 260 277 105 0 184-46 216-132l272 51C1071-99 893 22 633 22zM380-669h474c-15-146-94-237-233-237-143 0-229 99-241 237" id="Z"/><g id="c"><use transform="matrix(0.009765625,0,0,0.009765625,0,0)" xlink:href="#N"/><use transform="matrix(0.009765625,0,0,0.009765625,20.751953125,0)" xlink:href="#O"/><use transform="matrix(0.009765625,0,0,0.009765625,26.171875,0)" xlink:href="#P"/><use transform="matrix(0.009765625,0,0,0.009765625,34.70703125,0)" xlink:href="#Q"/><use transform="matrix(0.009765625,0,0,0.009765625,41.884765625,0)" xlink:href="#R"/><use transform="matrix(0.009765625,0,0,0.009765625,53.0859375,0)" xlink:href="#S"/><use transform="matrix(0.009765625,0,0,0.009765625,64.853515625,0)" xlink:href="#T"/><use transform="matrix(0.009765625,0,0,0.009765625,77.3046875,0)" xlink:href="#U"/><use transform="matrix(0.009765625,0,0,0.009765625,88.916015625,0)" xlink:href="#V"/><use transform="matrix(0.009765625,0,0,0.009765625,96.083984375,0)" xlink:href="#Q"/><use transform="matrix(0.009765625,0,0,0.009765625,103.26171875,0)" xlink:href="#R"/><use transform="matrix(0.009765625,0,0,0.009765625,114.462890625,0)" xlink:href="#U"/><use transform="matrix(0.009765625,0,0,0.009765625,126.07421875,0)" xlink:href="#W"/><use transform="matrix(0.009765625,0,0,0.009765625,138.525390625,0)" xlink:href="#U"/><use transform="matrix(0.009765625,0,0,0.009765625,150.13671875,0)" xlink:href="#X"/><use transform="matrix(0.009765625,0,0,0.009765625,155.76171875,0)" xlink:href="#Y"/><use transform="matrix(0.009765625,0,0,0.009765625,167.802734375,0)" xlink:href="#R"/><use transform="matrix(0.009765625,0,0,0.009765625,179.00390625,0)" xlink:href="#Z"/></g><path d="M458 0L52-1490h194c108 439 233 855 324 1313 92-459 221-873 331-1313h216c110 438 234 854 330 1307 92-455 216-869 323-1307h196L1558 0h-221l-256-944c-26-95-50-200-73-331-22 122-44 223-73 331L680 0H458" id="aa"/><path d="M158 0v-1118h174v172h12c41-113 157-188 290-188 26 0 70 2 91 3v181c-11-2-60-10-108-10-161 0-279 109-279 260V0H158" id="ab"/><path d="M158 0v-1490h180v865h22l478-493h223L593-638 1096 0H865L456-523 338-412V0H158" id="ac"/><path d="M126 0v-134l627-806v-11H146v-167h839v143L376-178v11h629V0H126" id="ad"/><g id="d"><use transform="matrix(0.008173828125000001,0,0,0.008173828125000001,0,0)" xlink:href="#aa"/><use transform="matrix(0.008173828125000001,0,0,0.008173828125000001,15.644707031250004,0)" xlink:href="#C"/><use transform="matrix(0.008173828125000001,0,0,0.008173828125000001,25.404257812500006,0)" xlink:href="#ab"/><use transform="matrix(0.008173828125000001,0,0,0.008173828125000001,31.967841796875007,0)" xlink:href="#ac"/><use transform="matrix(0.008173828125000001,0,0,0.008173828125000001,41.15522460937501,0)" xlink:href="#ad"/><use transform="matrix(0.008173828125000001,0,0,0.008173828125000001,50.154609375000014,0)" xlink:href="#C"/><use transform="matrix(0.008173828125000001,0,0,0.008173828125000001,59.91416015625001,0)" xlink:href="#D"/><use transform="matrix(0.008173828125000001,0,0,0.008173828125000001,69.81266601562501,0)" xlink:href="#B"/><use transform="matrix(0.008173828125000001,0,0,0.008173828125000001,80.07899414062501,0)" xlink:href="#C"/></g><path d="M180 0v-1490h190c0 262 1 526-3 784 217-279 467-523 702-784h249L716-845 1319 0h-225L585-716 370-489V0H180" id="ae"/><path d="M538 24C308 24 148-78 108-271l171-41c32 123 123 178 257 178 156 0 256-77 256-169 0-77-54-128-164-154l-186-44c-203-48-300-148-300-305 0-192 176-326 414-326 230 0 351 112 402 269l-163 42c-31-80-94-158-238-158-133 0-233 69-233 162 0 83 57 129 188 160l169 40c203 48 298 149 298 302 0 196-179 339-441 339" id="af"/><g id="e"><use transform="matrix(0.008173828125000001,0,0,0.008173828125000001,0,0)" xlink:href="#ae"/><use transform="matrix(0.008173828125000001,0,0,0.008173828125000001,10.585107421875001,0)" xlink:href="#x"/><use transform="matrix(0.008173828125000001,0,0,0.008173828125000001,20.622568359375002,0)" xlink:href="#af"/><use transform="matrix(0.008173828125000001,0,0,0.008173828125000001,29.458476562500003,0)" xlink:href="#z"/><use transform="matrix(0.008173828125000001,0,0,0.008173828125000001,34.77146484375,0)" xlink:href="#C"/><use transform="matrix(0.008173828125000001,0,0,0.008173828125000001,44.531015625,0)" xlink:href="#y"/></g><path d="M338-1490V0H158v-1490h180" id="ag"/><g id="f"><use transform="matrix(0.008173828125000001,0,0,0.008173828125000001,0,0)" xlink:href="#K"/><use transform="matrix(0.008173828125000001,0,0,0.008173828125000001,10.740410156250002,0)" xlink:href="#L"/><use transform="matrix(0.008173828125000001,0,0,0.008173828125000001,20.3037890625,0)" xlink:href="#M"/><use transform="matrix(0.008173828125000001,0,0,0.008173828125000001,30.202294921875,0)" xlink:href="#D"/><use transform="matrix(0.008173828125000001,0,0,0.008173828125000001,40.10080078125001,0)" xlink:href="#ag"/><use transform="matrix(0.008173828125000001,0,0,0.008173828125000001,44.155019531250005,0)" xlink:href="#D"/><use transform="matrix(0.008173828125000001,0,0,0.008173828125000001,54.053525390625005,0)" xlink:href="#y"/><use transform="matrix(0.008173828125000001,0,0,0.008173828125000001,63.94385742187501,0)" xlink:href="#B"/><use transform="matrix(0.008173828125000001,0,0,0.008173828125000001,74.21018554687501,0)" xlink:href="#C"/><use transform="matrix(0.008173828125000001,0,0,0.008173828125000001,83.96973632812501,0)" xlink:href="#y"/></g><path d="M180 0v-1490h908v168H370v486h669v168H370v500h727V0H180" id="ah"/><path d="M677 24c-213 0-288-135-325-197h-20V0H158v-1490h180v551h14c37-59 106-193 324-193 279 0 474 222 474 576 0 356-194 580-473 580zm-27-161c209 0 317-186 317-421 0-232-105-413-317-413-206 0-314 166-314 413 0 249 111 421 314 421" id="ai"/><g id="g"><use transform="matrix(0.008173828125000001,0,0,0.008173828125000001,0,0)" xlink:href="#ah"/><use transform="matrix(0.008173828125000001,0,0,0.008173828125000001,10.061982421875001,0)" xlink:href="#I"/><use transform="matrix(0.008173828125000001,0,0,0.008173828125000001,14.116201171875002,0)" xlink:href="#y"/><use transform="matrix(0.008173828125000001,0,0,0.008173828125000001,24.006533203125002,0)" xlink:href="#ai"/><use transform="matrix(0.008173828125000001,0,0,0.008173828125000001,34.41999023437501,0)" xlink:href="#A"/><use transform="matrix(0.008173828125000001,0,0,0.008173828125000001,43.81989257812501,0)" xlink:href="#D"/><use transform="matrix(0.008173828125000001,0,0,0.008173828125000001,53.71839843750001,0)" xlink:href="#A"/><use transform="matrix(0.008173828125000001,0,0,0.008173828125000001,63.11830078125001,0)" xlink:href="#D"/><use transform="matrix(0.008173828125000001,0,0,0.008173828125000001,73.016806640625,0)" xlink:href="#E"/><use transform="matrix(0.008173828125000001,0,0,0.008173828125000001,79.45778320312502,0)" xlink:href="#F"/><use transform="matrix(0.008173828125000001,0,0,0.008173828125000001,93.15711914062501,0)" xlink:href="#A"/><use transform="matrix(0.008173828125000001,0,0,0.008173828125000001,102.55702148437501,0)" xlink:href="#y"/><use transform="matrix(0.008173828125000001,0,0,0.008173828125000001,112.44735351562501,0)" xlink:href="#G"/></g><g id="h"><use transform="matrix(0.008173828125000001,0,0,0.008173828125000001,0,0)" xlink:href="#ah"/><use transform="matrix(0.008173828125000001,0,0,0.008173828125000001,10.061982421875001,0)" xlink:href="#y"/><use transform="matrix(0.008173828125000001,0,0,0.008173828125000001,19.952314453125002,0)" xlink:href="#B"/><use transform="matrix(0.008173828125000001,0,0,0.008173828125000001,30.218642578125003,0)" xlink:href="#I"/><use transform="matrix(0.008173828125000001,0,0,0.008173828125000001,34.272861328125,0)" xlink:href="#y"/><use transform="matrix(0.008173828125000001,0,0,0.008173828125000001,44.163193359375,0)" xlink:href="#C"/><use transform="matrix(0.008173828125000001,0,0,0.008173828125000001,53.922744140625,0)" xlink:href="#C"/><use transform="matrix(0.008173828125000001,0,0,0.008173828125000001,63.682294921875,0)" xlink:href="#ab"/><use transform="matrix(0.008173828125000001,0,0,0.008173828125000001,70.24587890625,0)" xlink:href="#I"/><use transform="matrix(0.008173828125000001,0,0,0.008173828125000001,74.30009765625,0)" xlink:href="#y"/><use transform="matrix(0.008173828125000001,0,0,0.008173828125000001,84.1904296875,0)" xlink:href="#B"/></g><g id="i"><use transform="matrix(0.008173828125000001,0,0,0.008173828125000001,0,0)" xlink:href="#H"/><use transform="matrix(0.008173828125000001,0,0,0.008173828125000001,10.952929687500001,0)" xlink:href="#C"/><use transform="matrix(0.008173828125000001,0,0,0.008173828125000001,20.875957031250003,0)" xlink:href="#A"/><use transform="matrix(0.008173828125000001,0,0,0.008173828125000001,30.275859375000003,0)" xlink:href="#ab"/><use transform="matrix(0.008173828125000001,0,0,0.008173828125000001,36.839443359375004,0)" xlink:href="#ai"/><use transform="matrix(0.008173828125000001,0,0,0.008173828125000001,47.08942382812501,0)" xlink:href="#C"/><use transform="matrix(0.008173828125000001,0,0,0.008173828125000001,56.848974609375006,0)" xlink:href="#I"/><use transform="matrix(0.008173828125000001,0,0,0.008173828125000001,60.90319335937501,0)" xlink:href="#z"/><use transform="matrix(0.008173828125000001,0,0,0.008173828125000001,66.379658203125,0)" xlink:href="#D"/><use transform="matrix(0.008173828125000001,0,0,0.008173828125000001,76.27816406250001,0)" xlink:href="#y"/><use transform="matrix(0.008173828125000001,0,0,0.008173828125000001,86.16849609375001,0)" xlink:href="#B"/><use transform="matrix(0.008173828125000001,0,0,0.008173828125000001,96.43482421875001,0)" xlink:href="#af"/><use transform="matrix(0.008173828125000001,0,0,0.008173828125000001,105.27073242187501,0)" xlink:href="#ad"/><use transform="matrix(0.008173828125000001,0,0,0.008173828125000001,114.2701171875,0)" xlink:href="#C"/><use transform="matrix(0.008173828125000001,0,0,0.008173828125000001,124.02966796875,0)" xlink:href="#I"/><use transform="matrix(0.008173828125000001,0,0,0.008173828125000001,128.08388671875,0)" xlink:href="#z"/><use transform="matrix(0.008173828125000001,0,0,0.008173828125000001,133.396875,0)" xlink:href="#C"/><use transform="matrix(0.008173828125000001,0,0,0.008173828125000001,143.15642578125,0)" xlink:href="#y"/></g><path d="M798-719v166H144v-166h654" id="aj"/><use transform="matrix(0.008173828125000001,0,0,0.008173828125000001,0,0)" xlink:href="#aj" id="j"/><path d="M180 0v-1490h901v168H370v510h643v168H370V0H180" id="ak"/><g id="k"><use transform="matrix(0.008173828125000001,0,0,0.008173828125000001,0,0)" xlink:href="#ak"/><use transform="matrix(0.008173828125000001,0,0,0.008173828125000001,9.220078125000002,0)" xlink:href="#C"/><use transform="matrix(0.008173828125000001,0,0,0.008173828125000001,18.979628906250003,0)" xlink:href="#ab"/><use transform="matrix(0.008173828125000001,0,0,0.008173828125000001,25.543212890625004,0)" xlink:href="#z"/><use transform="matrix(0.008173828125000001,0,0,0.008173828125000001,31.019677734375005,0)" xlink:href="#I"/><use transform="matrix(0.008173828125000001,0,0,0.008173828125000001,35.073896484375005,0)" xlink:href="#B"/><use transform="matrix(0.008173828125000001,0,0,0.008173828125000001,45.34022460937501,0)" xlink:href="#D"/><use transform="matrix(0.008173828125000001,0,0,0.008173828125000001,55.238730468750006,0)" xlink:href="#y"/><use transform="matrix(0.008173828125000001,0,0,0.008173828125000001,65.1290625,0)" xlink:href="#B"/></g><path d="M158 418v-1536h174v179h20c37-59 106-193 324-193 279 0 474 222 474 576 0 356-194 580-473 580-213 0-288-135-325-197h-14v591H158zm492-555c209 0 317-186 317-421 0-232-105-413-317-413-206 0-314 166-314 413 0 249 111 421 314 421" id="al"/><g id="l"><use transform="matrix(0.008173828125000001,0,0,0.008173828125000001,0,0)" xlink:href="#ak"/><use transform="matrix(0.008173828125000001,0,0,0.008173828125000001,9.473466796875002,0)" xlink:href="#A"/><use transform="matrix(0.008173828125000001,0,0,0.008173828125000001,18.873369140625,0)" xlink:href="#ag"/><use transform="matrix(0.008173828125000001,0,0,0.008173828125000001,23.172802734375,0)" xlink:href="#z"/><use transform="matrix(0.008173828125000001,0,0,0.008173828125000001,28.731005859375003,0)" xlink:href="#A"/><use transform="matrix(0.008173828125000001,0,0,0.008173828125000001,38.130908203125,0)" xlink:href="#al"/><use transform="matrix(0.008173828125000001,0,0,0.008173828125000001,48.380888671875006,0)" xlink:href="#al"/><use transform="matrix(0.008173828125000001,0,0,0.008173828125000001,58.79434570312501,0)" xlink:href="#A"/><use transform="matrix(0.008173828125000001,0,0,0.008173828125000001,68.19424804687502,0)" xlink:href="#ab"/><use transform="matrix(0.008173828125000001,0,0,0.008173828125000001,74.49626953125002,0)" xlink:href="#A"/><use transform="matrix(0.008173828125000001,0,0,0.008173828125000001,83.89617187500002,0)" xlink:href="#z"/></g><path d="M52 0l541-1490h220L1361 0h-200l-149-416H398L254 0H52zm404-582h497c-103-290-145-390-251-756-108 377-145 460-246 756" id="am"/><g id="m"><use transform="matrix(0.008173828125000001,0,0,0.008173828125000001,0,0)" xlink:href="#am"/><use transform="matrix(0.008173828125000001,0,0,0.008173828125000001,11.549619140625001,0)" xlink:href="#ai"/><use transform="matrix(0.008173828125000001,0,0,0.008173828125000001,21.799599609375,0)" xlink:href="#I"/><use transform="matrix(0.008173828125000001,0,0,0.008173828125000001,25.853818359375005,0)" xlink:href="#af"/><use transform="matrix(0.008173828125000001,0,0,0.008173828125000001,34.6897265625,0)" xlink:href="#x"/><use transform="matrix(0.008173828125000001,0,0,0.008173828125000001,44.7271875,0)" xlink:href="#ag"/><use transform="matrix(0.008173828125000001,0,0,0.008173828125000001,48.78140625,0)" xlink:href="#I"/><use transform="matrix(0.008173828125000001,0,0,0.008173828125000001,52.83562500000001,0)" xlink:href="#C"/><use transform="matrix(0.008173828125000001,0,0,0.008173828125000001,62.595175781250006,0)" xlink:href="#ab"/><use transform="matrix(0.008173828125000001,0,0,0.008173828125000001,69.03615234375,0)" xlink:href="#F"/><use transform="matrix(0.008173828125000001,0,0,0.008173828125000001,82.433056640625,0)" xlink:href="#C"/><use transform="matrix(0.008173828125000001,0,0,0.008173828125000001,92.192607421875,0)" xlink:href="#ab"/><use transform="matrix(0.008173828125000001,0,0,0.008173828125000001,98.75619140625,0)" xlink:href="#ac"/><use transform="matrix(0.008173828125000001,0,0,0.008173828125000001,107.94357421875,0)" xlink:href="#ad"/><use transform="matrix(0.008173828125000001,0,0,0.008173828125000001,116.942958984375,0)" xlink:href="#C"/><use transform="matrix(0.008173828125000001,0,0,0.008173828125000001,126.702509765625,0)" xlink:href="#D"/><use transform="matrix(0.008173828125000001,0,0,0.008173828125000001,136.601015625,0)" xlink:href="#B"/></g><g id="n"><use transform="matrix(0.008173828125000001,0,0,0.008173828125000001,0,0)" xlink:href="#H"/><use transform="matrix(0.008173828125000001,0,0,0.008173828125000001,10.952929687500001,0)" xlink:href="#C"/><use transform="matrix(0.008173828125000001,0,0,0.008173828125000001,20.875957031250003,0)" xlink:href="#A"/><use transform="matrix(0.008173828125000001,0,0,0.008173828125000001,30.275859375000003,0)" xlink:href="#ab"/><use transform="matrix(0.008173828125000001,0,0,0.008173828125000001,36.839443359375004,0)" xlink:href="#ai"/><use transform="matrix(0.008173828125000001,0,0,0.008173828125000001,47.08942382812501,0)" xlink:href="#C"/><use transform="matrix(0.008173828125000001,0,0,0.008173828125000001,56.848974609375006,0)" xlink:href="#I"/><use transform="matrix(0.008173828125000001,0,0,0.008173828125000001,60.90319335937501,0)" xlink:href="#z"/><use transform="matrix(0.008173828125000001,0,0,0.008173828125000001,66.379658203125,0)" xlink:href="#D"/><use transform="matrix(0.008173828125000001,0,0,0.008173828125000001,76.27816406250001,0)" xlink:href="#y"/><use transform="matrix(0.008173828125000001,0,0,0.008173828125000001,86.16849609375001,0)" xlink:href="#B"/><use transform="matrix(0.008173828125000001,0,0,0.008173828125000001,96.43482421875001,0)" xlink:href="#af"/><use transform="matrix(0.008173828125000001,0,0,0.008173828125000001,105.27073242187501,0)" xlink:href="#A"/><use transform="matrix(0.008173828125000001,0,0,0.008173828125000001,114.67063476562501,0)" xlink:href="#D"/><use transform="matrix(0.008173828125000001,0,0,0.008173828125000001,124.56914062500002,0)" xlink:href="#E"/><use transform="matrix(0.008173828125000001,0,0,0.008173828125000001,131.01011718750001,0)" xlink:href="#F"/><use transform="matrix(0.008173828125000001,0,0,0.008173828125000001,144.709453125,0)" xlink:href="#A"/><use transform="matrix(0.008173828125000001,0,0,0.008173828125000001,154.10935546875,0)" xlink:href="#y"/><use transform="matrix(0.008173828125000001,0,0,0.008173828125000001,163.99968750000002,0)" xlink:href="#G"/></g><g id="o"><use transform="matrix(0.008173828125000001,0,0,0.008173828125000001,0,0)" xlink:href="#w"/><use transform="matrix(0.008173828125000001,0,0,0.008173828125000001,15.121582031250002,0)" xlink:href="#x"/><use transform="matrix(0.008173828125000001,0,0,0.008173828125000001,25.15904296875,0)" xlink:href="#y"/><use transform="matrix(0.008173828125000001,0,0,0.008173828125000001,35.049375,0)" xlink:href="#z"/><use transform="matrix(0.008173828125000001,0,0,0.008173828125000001,40.607578124999996,0)" xlink:href="#A"/><use transform="matrix(0.008173828125000001,0,0,0.008173828125000001,50.007480468749996,0)" xlink:href="#B"/><use transform="matrix(0.008173828125000001,0,0,0.008173828125000001,60.27380859375,0)" xlink:href="#C"/><use transform="matrix(0.008173828125000001,0,0,0.008173828125000001,69.78814453125,0)" xlink:href="#ad"/><use transform="matrix(0.008173828125000001,0,0,0.008173828125000001,78.787529296875,0)" xlink:href="#C"/><use transform="matrix(0.008173828125000001,0,0,0.008173828125000001,88.54708007812499,0)" xlink:href="#I"/><use transform="matrix(0.008173828125000001,0,0,0.008173828125000001,92.601298828125,0)" xlink:href="#z"/><use transform="matrix(0.008173828125000001,0,0,0.008173828125000001,97.914287109375,0)" xlink:href="#C"/><use transform="matrix(0.008173828125000001,0,0,0.008173828125000001,107.673837890625,0)" xlink:href="#y"/></g><path d="M180 0v-1490h190v1322h690V0H180" id="an"/><g id="p"><use transform="matrix(0.008173828125000001,0,0,0.008173828125000001,0,0)" xlink:href="#an"/><use transform="matrix(0.008173828125000001,0,0,0.008173828125000001,9.465292968750001,0)" xlink:href="#A"/><use transform="matrix(0.008173828125000001,0,0,0.008173828125000001,18.865195312500003,0)" xlink:href="#B"/><use transform="matrix(0.008173828125000001,0,0,0.008173828125000001,29.131523437500004,0)" xlink:href="#C"/><use transform="matrix(0.008173828125000001,0,0,0.008173828125000001,38.891074218750006,0)" xlink:href="#ab"/><use transform="matrix(0.008173828125000001,0,0,0.008173828125000001,45.45465820312501,0)" xlink:href="#ac"/><use transform="matrix(0.008173828125000001,0,0,0.008173828125000001,54.26604492187501,0)" xlink:href="#x"/><use transform="matrix(0.008173828125000001,0,0,0.008173828125000001,64.30350585937501,0)" xlink:href="#af"/><use transform="matrix(0.008173828125000001,0,0,0.008173828125000001,73.13941406250001,0)" xlink:href="#z"/><use transform="matrix(0.008173828125000001,0,0,0.008173828125000001,78.45240234375001,0)" xlink:href="#C"/><use transform="matrix(0.008173828125000001,0,0,0.008173828125000001,88.21195312500001,0)" xlink:href="#y"/></g><path d="M180 0v-1490h510c348 0 508 209 508 474 0 266-160 477-507 477H370V0H180zm190-706h312c236 0 327-133 327-310 0-176-91-307-329-307H370v617" id="ao"/><g id="q"><use transform="matrix(0.008173828125000001,0,0,0.008173828125000001,0,0)" xlink:href="#ao"/><use transform="matrix(0.008173828125000001,0,0,0.008173828125000001,10.691367187500001,0)" xlink:href="#ag"/><use transform="matrix(0.008173828125000001,0,0,0.008173828125000001,14.745585937500001,0)" xlink:href="#A"/><use transform="matrix(0.008173828125000001,0,0,0.008173828125000001,24.145488281250003,0)" xlink:href="#y"/><use transform="matrix(0.008173828125000001,0,0,0.008173828125000001,34.03582031250001,0)" xlink:href="#D"/><use transform="matrix(0.008173828125000001,0,0,0.008173828125000001,43.93432617187501,0)" xlink:href="#y"/><use transform="matrix(0.008173828125000001,0,0,0.008173828125000001,53.82465820312501,0)" xlink:href="#B"/><use transform="matrix(0.008173828125000001,0,0,0.008173828125000001,64.09098632812501,0)" xlink:href="#af"/><use transform="matrix(0.008173828125000001,0,0,0.008173828125000001,72.92689453125001,0)" xlink:href="#A"/><use transform="matrix(0.008173828125000001,0,0,0.008173828125000001,82.32679687500001,0)" xlink:href="#D"/><use transform="matrix(0.008173828125000001,0,0,0.008173828125000001,92.22530273437502,0)" xlink:href="#E"/><use transform="matrix(0.008173828125000001,0,0,0.008173828125000001,98.66627929687503,0)" xlink:href="#F"/><use transform="matrix(0.008173828125000001,0,0,0.008173828125000001,112.36561523437503,0)" xlink:href="#A"/><use transform="matrix(0.008173828125000001,0,0,0.008173828125000001,121.76551757812503,0)" xlink:href="#y"/><use transform="matrix(0.008173828125000001,0,0,0.008173828125000001,131.65584960937503,0)" xlink:href="#G"/></g><g id="r"><use transform="matrix(0.008173828125000001,0,0,0.008173828125000001,0,0)" xlink:href="#ae"/><use transform="matrix(0.008173828125000001,0,0,0.008173828125000001,10.585107421875001,0)" xlink:href="#x"/><use transform="matrix(0.008173828125000001,0,0,0.008173828125000001,20.622568359375002,0)" xlink:href="#y"/><use transform="matrix(0.008173828125000001,0,0,0.008173828125000001,30.512900390625003,0)" xlink:href="#af"/><use transform="matrix(0.008173828125000001,0,0,0.008173828125000001,39.34880859375001,0)" xlink:href="#z"/><use transform="matrix(0.008173828125000001,0,0,0.008173828125000001,44.82527343750001,0)" xlink:href="#ab"/><use transform="matrix(0.008173828125000001,0,0,0.008173828125000001,51.127294921875006,0)" xlink:href="#D"/><use transform="matrix(0.008173828125000001,0,0,0.008173828125000001,61.025800781250005,0)" xlink:href="#ac"/><use transform="matrix(0.008173828125000001,0,0,0.008173828125000001,70.21318359375,0)" xlink:href="#z"/><use transform="matrix(0.008173828125000001,0,0,0.008173828125000001,75.6896484375,0)" xlink:href="#I"/><use transform="matrix(0.008173828125000001,0,0,0.008173828125000001,79.7438671875,0)" xlink:href="#x"/><use transform="matrix(0.008173828125000001,0,0,0.008173828125000001,89.781328125,0)" xlink:href="#y"/><use transform="matrix(0.008173828125000001,0,0,0.008173828125000001,99.67166015625,0)" xlink:href="#af"/><use transform="matrix(0.008173828125000001,0,0,0.008173828125000001,108.507568359375,0)" xlink:href="#ad"/><use transform="matrix(0.008173828125000001,0,0,0.008173828125000001,117.506953125,0)" xlink:href="#C"/><use transform="matrix(0.008173828125000001,0,0,0.008173828125000001,127.26650390625,0)" xlink:href="#I"/><use transform="matrix(0.008173828125000001,0,0,0.008173828125000001,131.32072265624998,0)" xlink:href="#z"/><use transform="matrix(0.008173828125000001,0,0,0.008173828125000001,136.63371093749998,0)" xlink:href="#C"/><use transform="matrix(0.008173828125000001,0,0,0.008173828125000001,146.39326171874998,0)" xlink:href="#y"/></g><g id="s"><use transform="matrix(0.008173828125000001,0,0,0.008173828125000001,0,0)" xlink:href="#ah"/><use transform="matrix(0.008173828125000001,0,0,0.008173828125000001,10.061982421875001,0)" xlink:href="#y"/><use transform="matrix(0.008173828125000001,0,0,0.008173828125000001,19.952314453125002,0)" xlink:href="#B"/><use transform="matrix(0.008173828125000001,0,0,0.008173828125000001,30.218642578125003,0)" xlink:href="#I"/><use transform="matrix(0.008173828125000001,0,0,0.008173828125000001,34.272861328125,0)" xlink:href="#y"/><use transform="matrix(0.008173828125000001,0,0,0.008173828125000001,44.163193359375,0)" xlink:href="#C"/><use transform="matrix(0.008173828125000001,0,0,0.008173828125000001,53.922744140625,0)" xlink:href="#C"/><use transform="matrix(0.008173828125000001,0,0,0.008173828125000001,63.682294921875,0)" xlink:href="#ab"/><use transform="matrix(0.008173828125000001,0,0,0.008173828125000001,70.24587890625,0)" xlink:href="#I"/><use transform="matrix(0.008173828125000001,0,0,0.008173828125000001,74.30009765625,0)" xlink:href="#y"/><use transform="matrix(0.008173828125000001,0,0,0.008173828125000001,84.1904296875,0)" xlink:href="#B"/></g><g id="t"><use transform="matrix(0.008173828125000001,0,0,0.008173828125000001,0,0)" xlink:href="#w"/><use transform="matrix(0.008173828125000001,0,0,0.008173828125000001,15.121582031250002,0)" xlink:href="#A"/><use transform="matrix(0.008173828125000001,0,0,0.008173828125000001,24.521484375000004,0)" xlink:href="#z"/><use transform="matrix(0.008173828125000001,0,0,0.008173828125000001,29.834472656250004,0)" xlink:href="#C"/><use transform="matrix(0.008173828125000001,0,0,0.008173828125000001,39.594023437500006,0)" xlink:href="#ab"/><use transform="matrix(0.008173828125000001,0,0,0.008173828125000001,46.157607421875,0)" xlink:href="#I"/><use transform="matrix(0.008173828125000001,0,0,0.008173828125000001,50.211826171875,0)" xlink:href="#A"/><use transform="matrix(0.008173828125000001,0,0,0.008173828125000001,59.61172851562501,0)" xlink:href="#ag"/><use transform="matrix(0.008173828125000001,0,0,0.008173828125000001,63.66594726562501,0)" xlink:href="#C"/><use transform="matrix(0.008173828125000001,0,0,0.008173828125000001,73.425498046875,0)" xlink:href="#I"/><use transform="matrix(0.008173828125000001,0,0,0.008173828125000001,77.47971679687501,0)" xlink:href="#y"/><use transform="matrix(0.008173828125000001,0,0,0.008173828125000001,87.37004882812501,0)" xlink:href="#af"/><use transform="matrix(0.008173828125000001,0,0,0.008173828125000001,96.20595703125001,0)" xlink:href="#al"/><use transform="matrix(0.008173828125000001,0,0,0.008173828125000001,106.6194140625,0)" xlink:href="#A"/><use transform="matrix(0.008173828125000001,0,0,0.008173828125000001,116.01931640625,0)" xlink:href="#ab"/><use transform="matrix(0.008173828125000001,0,0,0.008173828125000001,122.321337890625,0)" xlink:href="#D"/><use transform="matrix(0.008173828125000001,0,0,0.008173828125000001,132.21984375,0)" xlink:href="#y"/><use transform="matrix(0.008173828125000001,0,0,0.008173828125000001,142.11017578125,0)" xlink:href="#B"/></g><g id="u"><use transform="matrix(0.008173828125000001,0,0,0.008173828125000001,0,0)" xlink:href="#w"/><use transform="matrix(0.008173828125000001,0,0,0.008173828125000001,15.121582031250002,0)" xlink:href="#I"/><use transform="matrix(0.008173828125000001,0,0,0.008173828125000001,19.175800781250004,0)" xlink:href="#z"/><use transform="matrix(0.008173828125000001,0,0,0.008173828125000001,24.734003906250006,0)" xlink:href="#A"/><use transform="matrix(0.008173828125000001,0,0,0.008173828125000001,34.13390625000001,0)" xlink:href="#ab"/><use transform="matrix(0.008173828125000001,0,0,0.008173828125000001,40.69749023437501,0)" xlink:href="#ai"/><use transform="matrix(0.008173828125000001,0,0,0.008173828125000001,50.94747070312501,0)" xlink:href="#C"/><use transform="matrix(0.008173828125000001,0,0,0.008173828125000001,60.70702148437501,0)" xlink:href="#I"/><use transform="matrix(0.008173828125000001,0,0,0.008173828125000001,64.76124023437501,0)" xlink:href="#z"/><use transform="matrix(0.008173828125000001,0,0,0.008173828125000001,70.07422851562501,0)" xlink:href="#C"/><use transform="matrix(0.008173828125000001,0,0,0.008173828125000001,79.83377929687501,0)" xlink:href="#ab"/></g><path d="M537 14c-226 0-379-139-379-422v-710h180v695c0 172 97 275 253 275 160 0 281-109 281-300v-670h181V0H879v-209C806-46 684 14 537 14zM395-1301c-66 0-119-54-119-119s53-118 119-118c65 0 118 53 118 118s-53 119-118 119zm421 0c-66 0-119-54-119-119s53-118 119-118c65 0 118 53 118 118s-53 119-118 119" id="ap"/><g id="v"><use transform="matrix(0.008173828125000001,0,0,0.008173828125000001,0,0)" xlink:href="#K"/><use transform="matrix(0.008173828125000001,0,0,0.008173828125000001,10.740410156250002,0)" xlink:href="#I"/><use transform="matrix(0.008173828125000001,0,0,0.008173828125000001,14.794628906250002,0)" xlink:href="#L"/><use transform="matrix(0.008173828125000001,0,0,0.008173828125000001,24.358007812500006,0)" xlink:href="#M"/><use transform="matrix(0.008173828125000001,0,0,0.008173828125000001,34.256513671875005,0)" xlink:href="#C"/><use transform="matrix(0.008173828125000001,0,0,0.008173828125000001,44.016064453125004,0)" xlink:href="#ab"/><use transform="matrix(0.008173828125000001,0,0,0.008173828125000001,50.5796484375,0)" xlink:href="#M"/><use transform="matrix(0.008173828125000001,0,0,0.008173828125000001,60.478154296875,0)" xlink:href="#C"/><use transform="matrix(0.008173828125000001,0,0,0.008173828125000001,70.237705078125,0)" xlink:href="#I"/><use transform="matrix(0.008173828125000001,0,0,0.008173828125000001,74.29192382812501,0)" xlink:href="#z"/><use transform="matrix(0.008173828125000001,0,0,0.008173828125000001,79.60491210937501,0)" xlink:href="#af"/><use transform="matrix(0.008173828125000001,0,0,0.008173828125000001,88.44082031250001,0)" xlink:href="#A"/><use transform="matrix(0.008173828125000001,0,0,0.008173828125000001,97.84072265625001,0)" xlink:href="#D"/><use transform="matrix(0.008173828125000001,0,0,0.008173828125000001,107.73922851562502,0)" xlink:href="#af"/><use transform="matrix(0.008173828125000001,0,0,0.008173828125000001,116.57513671875002,0)" xlink:href="#ab"/><use transform="matrix(0.008173828125000001,0,0,0.008173828125000001,122.87715820312502,0)" xlink:href="#ap"/><use transform="matrix(0.008173828125000001,0,0,0.008173828125000001,132.77566406250003,0)" xlink:href="#af"/><use transform="matrix(0.008173828125000001,0,0,0.008173828125000001,141.61157226562503,0)" xlink:href="#z"/><use transform="matrix(0.008173828125000001,0,0,0.008173828125000001,147.08803710937502,0)" xlink:href="#D"/><use transform="matrix(0.008173828125000001,0,0,0.008173828125000001,156.98654296875003,0)" xlink:href="#y"/><use transform="matrix(0.008173828125000001,0,0,0.008173828125000001,166.87687500000004,0)" xlink:href="#B"/></g></defs></g></svg>